<?xml version="1.0" encoding="utf-8"?>
<svg version="1.1" xmlns="http://www.w3.org/2000/svg" xmlns:xlink="http://www.w3.org/1999/xlink" viewBox="0 0 3244 3444" enable-background="new 0 0 3244 3444" xml:space="preserve" preserveAspectRatio="xMidYMid meet">
<g stroke="black" stroke-width="0" fill="black">
 <circle cx="1747" cy="1347" r="25" />
 <circle cx="1747" cy="1647" r="25" />
 <circle cx="1747" cy="2397" r="25" />
 <circle cx="1747" cy="2697" r="25" />
 <circle cx="1897" cy="747" r="25" />
 <circle cx="947" cy="747" r="25" />
 <circle cx="1997" cy="1347" r="25" />
</g>
<g stroke="black" fill="none">
</g>
<g stroke="black" stroke-width="0" fill="black">
</g>
<g stroke="black" stroke-linecap="round" >
 <line x1="547" y1="1397" x2="647" y2="1397" stroke-width="10" />
 <line x1="647" y1="1397" x2="647" y2="2347" stroke-width="10" />
 <line x1="647" y1="2347" x2="547" y2="2347" stroke-width="10" />
 <line x1="547" y1="2347" x2="547" y2="1397" stroke-width="10" />
 <line x1="647" y1="1497" x2="747" y2="1497" stroke-width="10" />
 <line x1="647" y1="1647" x2="747" y2="1647" stroke-width="10" />
 <line x1="647" y1="1797" x2="747" y2="1797" stroke-width="10" />
 <line x1="647" y1="1947" x2="747" y2="1947" stroke-width="10" />
 <line x1="647" y1="2097" x2="747" y2="2097" stroke-width="10" />
 <line x1="647" y1="2247" x2="747" y2="2247" stroke-width="10" />
 <line x1="2147" y1="497" x2="3147" y2="497" stroke-width="10" />
 <line x1="3147" y1="497" x2="3147" y2="3347" stroke-width="10" />
 <line x1="3147" y1="3347" x2="2147" y2="3347" stroke-width="10" />
 <line x1="2147" y1="3347" x2="2147" y2="497" stroke-width="10" />
 <line x1="2147" y1="747" x2="2047" y2="747" stroke-width="10" />
 <line x1="2147" y1="1347" x2="2047" y2="1347" stroke-width="10" />
 <line x1="2147" y1="1497" x2="2047" y2="1497" stroke-width="10" />
 <line x1="2147" y1="1647" x2="2047" y2="1647" stroke-width="10" />
 <line x1="2147" y1="1947" x2="2047" y2="1947" stroke-width="10" />
 <line x1="2147" y1="2097" x2="2047" y2="2097" stroke-width="10" />
 <line x1="2147" y1="2397" x2="2047" y2="2397" stroke-width="10" />
 <line x1="2147" y1="2697" x2="2047" y2="2697" stroke-width="10" />
 <line x1="2147" y1="3147" x2="2047" y2="3147" stroke-width="10" />
 <line x1="2047" y1="1347" x2="1747" y2="1347" stroke-width="10" />
 <line x1="1747" y1="1347" x2="1747" y2="1472" stroke-width="10" />
 <line x1="1747" y1="1472" x2="1822" y2="1472" stroke-width="10" />
 <line x1="1822" y1="1522" x2="1747" y2="1522" stroke-width="10" />
 <line x1="1747" y1="1522" x2="1672" y2="1522" stroke-width="10" />
 <line x1="1672" y1="1472" x2="1747" y2="1472" stroke-width="10" />
 <line x1="2047" y1="1647" x2="1747" y2="1647" stroke-width="10" />
 <line x1="1747" y1="1647" x2="1747" y2="1747" stroke-width="10" />
 <line x1="1647" y1="1747" x2="1847" y2="1747" stroke-width="10" />
 <line x1="1672" y1="1777" x2="1822" y2="1777" stroke-width="10" />
 <line x1="1697" y1="1807" x2="1797" y2="1807" stroke-width="10" />
 <line x1="1722" y1="1837" x2="1772" y2="1837" stroke-width="10" />
 <line x1="1747" y1="1647" x2="1747" y2="1522" stroke-width="10" />
 <line x1="1747" y1="1347" x2="1747" y2="1247" stroke-width="10" />
 <line x1="1747" y1="1247" x2="1672" y2="1247" stroke-width="10" />
 <line x1="1672" y1="1247" x2="1747" y2="1172" stroke-width="10" />
 <line x1="1747" y1="1172" x2="1822" y2="1247" stroke-width="10" />
 <line x1="1822" y1="1247" x2="1747" y2="1247" stroke-width="10" />
 <line x1="2047" y1="2397" x2="1747" y2="2397" stroke-width="10" />
 <line x1="1747" y1="2397" x2="1747" y2="2522" stroke-width="10" />
 <line x1="1747" y1="2522" x2="1822" y2="2522" stroke-width="10" />
 <line x1="1822" y1="2572" x2="1747" y2="2572" stroke-width="10" />
 <line x1="1747" y1="2572" x2="1672" y2="2572" stroke-width="10" />
 <line x1="1672" y1="2522" x2="1747" y2="2522" stroke-width="10" />
 <line x1="2047" y1="2697" x2="1747" y2="2697" stroke-width="10" />
 <line x1="1747" y1="2697" x2="1747" y2="2797" stroke-width="10" />
 <line x1="1647" y1="2797" x2="1847" y2="2797" stroke-width="10" />
 <line x1="1672" y1="2827" x2="1822" y2="2827" stroke-width="10" />
 <line x1="1697" y1="2857" x2="1797" y2="2857" stroke-width="10" />
 <line x1="1722" y1="2887" x2="1772" y2="2887" stroke-width="10" />
 <line x1="1747" y1="2697" x2="1747" y2="2572" stroke-width="10" />
 <line x1="1747" y1="2397" x2="1747" y2="2297" stroke-width="10" />
 <line x1="1747" y1="2297" x2="1672" y2="2297" stroke-width="10" />
 <line x1="1672" y1="2297" x2="1747" y2="2222" stroke-width="10" />
 <line x1="1747" y1="2222" x2="1822" y2="2297" stroke-width="10" />
 <line x1="1822" y1="2297" x2="1747" y2="2297" stroke-width="10" />
 <line x1="747" y1="1647" x2="1397" y2="1647" stroke-width="10" />
 <line x1="1397" y1="1647" x2="1397" y2="1347" stroke-width="10" />
 <line x1="1397" y1="1347" x2="1747" y2="1347" stroke-width="10" />
 <line x1="747" y1="1797" x2="1547" y2="1797" stroke-width="10" />
 <line x1="1547" y1="1797" x2="1547" y2="1647" stroke-width="10" />
 <line x1="1547" y1="1647" x2="1747" y2="1647" stroke-width="10" />
 <line x1="747" y1="1947" x2="2047" y2="1947" stroke-width="10" />
 <line x1="747" y1="2097" x2="2047" y2="2097" stroke-width="10" />
 <line x1="772" y1="2222" x2="822" y2="2272" stroke-width="10" />
 <line x1="822" y1="2222" x2="772" y2="2272" stroke-width="10" />
 <line x1="747" y1="1497" x2="1247" y2="1497" stroke-width="10" />
 <line x1="1247" y1="1497" x2="1247" y2="1047" stroke-width="10" />
 <line x1="1247" y1="1047" x2="1897" y2="1047" stroke-width="10" />
 <line x1="1897" y1="1047" x2="1897" y2="747" stroke-width="10" />
 <line x1="1897" y1="747" x2="2047" y2="747" stroke-width="10" />
 <line x1="1897" y1="747" x2="1597" y2="747" stroke-width="10" />
 <line x1="1597" y1="747" x2="1597" y2="797" stroke-width="10" />
 <line x1="1597" y1="797" x2="1297" y2="797" stroke-width="10" />
 <line x1="1297" y1="797" x2="1297" y2="747" stroke-width="10" />
 <line x1="1297" y1="747" x2="1297" y2="697" stroke-width="10" />
 <line x1="1297" y1="697" x2="1597" y2="697" stroke-width="10" />
 <line x1="1597" y1="697" x2="1597" y2="747" stroke-width="10" />
 <line x1="1297" y1="747" x2="947" y2="747" stroke-width="10" />
 <line x1="947" y1="747" x2="947" y2="597" stroke-width="10" />
 <line x1="947" y1="597" x2="897" y2="597" stroke-width="10" />
 <line x1="897" y1="597" x2="897" y2="297" stroke-width="10" />
 <line x1="897" y1="297" x2="947" y2="297" stroke-width="10" />
 <line x1="947" y1="297" x2="997" y2="297" stroke-width="10" />
 <line x1="997" y1="297" x2="997" y2="597" stroke-width="10" />
 <line x1="997" y1="597" x2="947" y2="597" stroke-width="10" />
 <line x1="947" y1="297" x2="947" y2="197" stroke-width="10" />
 <line x1="947" y1="197" x2="872" y2="197" stroke-width="10" />
 <line x1="872" y1="197" x2="947" y2="122" stroke-width="10" />
 <line x1="947" y1="122" x2="1022" y2="197" stroke-width="10" />
 <line x1="1022" y1="197" x2="947" y2="197" stroke-width="10" />
 <line x1="947" y1="747" x2="947" y2="897" stroke-width="10" />
 <line x1="947" y1="897" x2="1022" y2="897" stroke-width="10" />
 <line x1="1022" y1="947" x2="947" y2="947" stroke-width="10" />
 <line x1="947" y1="947" x2="872" y2="947" stroke-width="10" />
 <line x1="872" y1="897" x2="947" y2="897" stroke-width="10" />
 <line x1="947" y1="947" x2="947" y2="997" stroke-width="10" />
 <line x1="947" y1="997" x2="947" y2="1097" stroke-width="10" />
 <line x1="847" y1="1097" x2="1047" y2="1097" stroke-width="10" />
 <line x1="872" y1="1127" x2="1022" y2="1127" stroke-width="10" />
 <line x1="897" y1="1157" x2="997" y2="1157" stroke-width="10" />
 <line x1="922" y1="1187" x2="972" y2="1187" stroke-width="10" />
 <line x1="2047" y1="3147" x2="1847" y2="3147" stroke-width="10" />
 <line x1="1847" y1="3147" x2="1847" y2="3222" stroke-width="10" />
 <line x1="1797" y1="3222" x2="1797" y2="3147" stroke-width="10" />
 <line x1="1797" y1="3147" x2="1797" y2="3072" stroke-width="10" />
 <line x1="1847" y1="3072" x2="1847" y2="3147" stroke-width="10" />
 <line x1="1797" y1="3147" x2="1397" y2="3147" stroke-width="10" />
 <line x1="1397" y1="3147" x2="1397" y2="3247" stroke-width="10" />
 <line x1="1297" y1="3247" x2="1497" y2="3247" stroke-width="10" />
 <line x1="1322" y1="3277" x2="1472" y2="3277" stroke-width="10" />
 <line x1="1347" y1="3307" x2="1447" y2="3307" stroke-width="10" />
 <line x1="1372" y1="3337" x2="1422" y2="3337" stroke-width="10" />
 <line x1="2047" y1="1497" x2="1997" y2="1497" stroke-width="10" />
 <line x1="1997" y1="1497" x2="1997" y2="1347" stroke-width="10" />
</g>
<g stroke="black" stroke-width="0" fill="black">
</g>
<g stroke="black" fill="black" font-family="Consolas,Source Code,Monaco,Lucida Console,Monospace">
 <text x="557" y="2250" font-size="70" transform="rotate(270,557,2197)" >ICSP conn (NSDSP)
</text> <text x="677" y="1454" font-size="100" >1
</text> <text x="247" y="1534" font-size="100" >MCLR
</text> <text x="297" y="1684" font-size="100" >VDD
</text> <text x="297" y="1834" font-size="100" >VSS
</text> <text x="97" y="1984" font-size="100" >ICSPDAT
</text> <text x="97" y="2134" font-size="100" >ICSPCLK
</text> <text x="297" y="2284" font-size="100" >LVP
</text> <text x="2207" y="784" font-size="100" >MCLR
</text> <text x="2207" y="1384" font-size="100" >VDD
</text> <text x="2207" y="1534" font-size="100" >ENVREG
</text> <text x="2207" y="1684" font-size="100" >VSS
</text> <text x="2207" y="1984" font-size="100" >PGD
</text> <text x="2207" y="2134" font-size="100" >PGC
</text> <text x="2207" y="2434" font-size="100" >AVDD
</text> <text x="2207" y="2734" font-size="100" >AVSS
</text> <text x="2207" y="3184" font-size="100" >VCAP
</text> <text x="2447" y="1031" font-size="200" >PIC
</text> <text x="1547" y="1483" font-size="80" >C1
</text> <text x="1427" y="1583" font-size="80" >100nF
</text> <text x="1847" y="1208" font-size="80" >Vdd
</text> <text x="1547" y="2533" font-size="80" >C2
</text> <text x="1427" y="2633" font-size="80" >100nF
</text> <text x="1847" y="2258" font-size="80" >Vdd
</text> <text x="1187" y="688" font-size="80" >R1
</text> <text x="1637" y="688" font-size="80" >470
</text> <text x="777" y="358" font-size="80" >R2
</text> <text x="737" y="458" font-size="80" >10K
</text> <text x="1047" y="158" font-size="80" >Vdd
</text> <text x="747" y="908" font-size="80" >C3
</text> <text x="627" y="1008" font-size="80" >100nF
</text> <text x="1667" y="3258" font-size="80" >C4
</text> <text x="1887" y="3258" font-size="80" >10µF
</text></g>
<g stroke="white" stroke-width="0" fill="white">
</g>
</svg>
